<svg xmlns="http://www.w3.org/2000/svg" xmlns:xlink="http://www.w3.org/1999/xlink" width="1024" height="1024" viewBox="0 0 1024 1024"><metadata><rdf:RDF xmlns:rdf="http://www.w3.org/1999/02/22-rdf-syntax-ns#" xmlns:dc="http://purl.org/dc/elements/1.1/"><rdf:Description><dc:creator>RealFaviconGenerator</dc:creator><dc:source>https://realfavicongenerator.net</dc:source></rdf:Description></rdf:RDF></metadata><path fill="#E9E9DD" d="M0 0L170.602 0L857.893 0L1024 0L1024 169.509L1024 855.875L1024 1024L854.944 1024L168.649 1024L0 1024L0 859.283L0 167.619L0 0Z"></path><path fill="#FEFEFE" d="M857.893 0L1024 0L1024 169.509C1023.01 167.884 1020.26 151.034 1019.28 147.446C1018.15 143.279 1016.68 137.871 1015.22 133.365C998.085 80.174 956.129 33.2969 903.687 13.0882C894.234 9.777 884.455 7.05939 874.876 4.2416C871.179 3.15417 860.287 1.43249 857.893 0Z"></path><path fill="#FEFEFE" d="M854.944 1024C857.048 1022.44 870.972 1020.42 874.572 1019.58C886.793 1016.72 898.746 1012.81 910.298 1007.9C959.219 986.971 996.978 943.408 1014.69 893.756C1017.62 885.247 1019.2 876.284 1021.15 867.521C1021.93 864.054 1022.62 858.966 1024 855.875L1024 1024L854.944 1024Z"></path><path fill="#FEFEFE" d="M0 0L170.602 0C167.187 2.08658 151.848 3.71826 146.972 4.80788C81.7038 19.3935 29.4612 69.8919 8.57375 132.833C6.80895 138.151 1.51938 165.35 0 167.619L0 0Z"></path><path fill="#FEFEFE" d="M0 859.283C2.20499 862.27 4.94409 879.199 6.33561 884.136C25.1423 950.854 79.8702 1003.41 147.329 1019.35C151.456 1020.32 166.136 1022.55 168.649 1024L0 1024L0 859.283Z"></path><path fill="#9C1E17" d="M495.161 151.71C529.124 150.048 568.042 153.581 600.809 162.805C691.002 187.866 767.569 247.682 813.711 329.13C860.442 412.663 873.603 510.219 848.183 602.989C834.755 652.78 811.607 695.052 779.469 735.126C758.666 761.068 754.999 768.036 720.341 757.997C708.562 766.445 695.645 774.304 684.272 782.988C685.151 796.111 683.952 810.33 675.526 821.339C671.36 826.782 659.927 830.931 653.31 833.719C615.151 850.088 574.563 860.078 533.166 863.289C521.767 864.669 504.644 863.993 493.124 863.318C418.096 858.708 346.644 829.65 289.692 780.59C215.763 716.989 170.577 626.285 164.337 528.963C158.707 434.239 190.618 341.111 253.159 269.747C314.724 199.528 401.925 156.995 495.161 151.71Z"></path><path fill="#E9E9DD" d="M504.04 170.217C511.844 169.387 529.241 170.307 537.189 170.999C581.713 174.468 625.01 187.26 664.27 208.544C742.261 250.545 800.575 321.567 826.594 406.241C853.33 495.822 845.448 587.866 800.727 670.442C789.717 690.771 776.349 708.877 761.933 726.875C758.253 731.471 754.676 736.971 750.065 740.66C748.29 742.08 746.287 743.045 744.037 743.426C735.388 744.895 724.553 735.898 717.792 738.194C712.427 740.017 666.536 771.147 665.31 774.332C663.484 779.072 665.885 786.378 665.798 791.532C665.691 797.827 663.707 803.301 660.985 808.892C622.218 829.162 570.436 843.218 526.677 844.574C526.016 844.618 525.355 844.656 524.693 844.689C466.787 847.663 410.126 832.665 359.202 805.611C255.952 750.759 187.877 639.348 182.507 523.067C178.972 432.934 210.799 344.988 271.198 277.992C332.891 210.702 413.126 174.221 504.04 170.217Z"></path><path fill="#9C1E17" d="M344.955 305.058L567.36 304.979C567.047 313.046 567.035 320.694 567.059 328.774C541.18 328.234 517.489 330.912 507.873 358.174C505.946 363.678 504.701 369.398 504.166 375.205C502.687 390.434 503.317 418.121 503.231 434.254C503.053 480.283 503.374 526.312 504.191 572.334C504.231 577.103 504.18 581.842 504.198 586.608C504.273 606.531 500.306 625.602 509.413 644.222C513.553 652.744 520.941 659.247 529.919 662.272C547.537 668.25 571.045 660.557 587.095 652.732C626.961 633.296 656.4 592.553 671.11 551.452C674.814 541.103 678.201 530.685 681.686 520.377C689.209 521.341 697.187 521.756 704.809 522.505C703.648 528.825 702.032 535.691 700.67 542.018C698.583 554.557 694.659 570.392 691.979 583L676.121 657.905C673.61 669.55 670.075 684.044 668.223 695.595L345.096 695.578L344.936 670.966C384.913 670.642 404.706 656.035 404.924 614.396C405.192 563.39 405.103 512.336 405.07 461.327L405.015 412.88C404.895 364.129 403.967 330.041 344.838 329.517L344.955 305.058Z"></path><path fill="#9C1E17" d="M571.665 946.628C573.85 946.618 587.276 946.367 590.036 946.968C590.472 947.063 590.294 949.967 590.276 950.888C590.024 953.23 589.849 954.339 589.353 956.631C589.334 957.234 589.32 957.837 589.312 958.44C589.282 961.934 588.573 960.858 585.001 960.972C582.354 961.057 579.62 960.978 576.961 961.008L576.951 967.761C578.748 967.763 589.809 966.825 590.539 968.487C590.632 968.701 590.713 971.665 590.346 971.694C584.3 972.174 577.683 971.989 571.558 972.02L571.665 946.628Z"></path><path fill="#E9E9DD" d="M576.85 956.85C576.773 954.754 576.742 952.931 576.808 950.839C581.297 950.83 585.787 950.847 590.276 950.888C590.024 953.23 589.849 954.339 589.353 956.631L576.85 956.85Z"></path><path fill="#9C1E17" d="M485.765 946.55C491.747 946.567 498.426 946.285 504.272 946.844C504.665 946.881 504.689 950.749 504.22 950.787C499.834 951.145 495.059 950.915 490.607 950.914C490.587 952.816 490.588 954.718 490.61 956.619C494.761 956.64 499.091 956.462 503.183 956.738C503.744 956.776 503.583 960.317 503.259 960.362C499.43 960.894 494.549 960.614 490.65 960.652C490.624 963.037 490.646 965.423 490.717 967.807C492.704 967.774 502.361 967.381 504.696 967.905C504.947 967.961 505.083 968.844 505.086 969.251L505.085 970.007C505.086 970.427 505.129 971.65 504.806 971.681C500.976 972.042 488.82 971.831 485.63 971.858C485.774 963.388 485.675 954.998 485.765 946.55Z"></path><path fill="#9C1E17" d="M464.011 946.537C469.539 946.571 475.515 946.357 480.954 946.788C481.506 947.181 481.313 950.427 481.04 950.512C478.415 951.338 471.988 950.862 469.418 950.848C469.367 952.982 469.377 955.116 469.448 957.249C472.518 957.262 476.023 957.001 479.003 957.413C479.517 957.485 479.947 959.847 480.024 960.152C478.117 961.792 472.639 961.057 469.446 961.056C469.414 964.117 469.777 968.696 469.088 971.603C468.626 972.1 464.288 971.986 464.259 971.576C463.726 963.96 463.975 954.16 464.011 946.537Z"></path><path fill="#9C1E17" d="M550.145 946.638C550.949 946.633 554.706 946.238 555.255 946.878C556.054 947.812 555.508 965.248 555.53 967.635C556.974 967.638 566.332 967.419 567.907 967.787C568.452 967.915 568.24 971.074 568.229 972.009L550.075 971.952C550.179 963.515 550.203 955.076 550.145 946.638Z"></path><path fill="#9C1E17" d="M518.335 946.605C524.005 946.621 529.897 946.41 535.515 946.753C536.26 946.798 536.075 950.514 535.686 950.581C532.122 951.194 527.22 950.802 523.521 950.806C523.474 952.82 523.353 955.372 523.676 957.328C523.465 959.135 523.568 959.614 523.58 961.418C523.454 964.842 523.526 968.334 523.545 971.765C521.833 971.744 520.108 971.763 518.4 971.715C518.459 963.345 518.438 954.974 518.335 946.605Z"></path><path fill="#9C1E17" d="M432.867 946.624C438.541 946.684 437.598 945.857 437.619 951.827C437.638 957.162 437.612 962.534 437.604 967.871C441.393 967.813 446.197 967.522 449.898 967.973C450.306 968.023 450.357 971.494 450.375 971.736C448.013 972.109 435.618 971.915 432.817 971.913C432.945 963.445 432.846 955.08 432.867 946.624Z"></path><path fill="#9C1E17" d="M539.895 946.63C540.651 946.629 544.336 946.285 544.814 946.855C545.665 947.867 545.009 968.912 545.02 971.952C538.738 972.021 539.911 972.806 539.895 965.954C539.88 959.519 539.874 953.064 539.895 946.63Z"></path><path fill="#9C1E17" d="M454.059 946.572C460.235 946.496 458.782 945.848 458.797 952.84C458.81 959.155 458.878 965.498 458.841 971.811C458.444 971.812 454.309 972.027 454.276 971.485C453.794 963.651 454.005 954.405 454.059 946.572Z"></path><path fill="#9C1E17" d="M523.676 957.328C525.423 957.331 530.697 957.464 532.264 957.286C535.799 956.884 533.979 961.225 534.01 961.219C531.376 961.725 526.552 961.415 523.58 961.418C523.568 959.614 523.465 959.135 523.676 957.328Z"></path></svg>